<svg xmlns="http://www.w3.org/2000/svg" width="4296" height="3303" viewBox="0 0 4296 3303" version="1.1">
	<path d="M 2111.267 0.814 C 2109.734 1.787, 1569.994 1444.210, 1570.015 1447.276 C 1570.024 1448.499, 1570.361 1449.982, 1570.765 1450.572 C 1572.352 1452.886, 2110.240 1925.152, 2112.421 1926.146 C 2115.193 1927.409, 2118.552 1925.986, 2119.446 1923.171 C 2119.774 1922.136, 2071.040 1758.074, 2007.433 1546.089 C 1910.338 1222.490, 1895.044 1170.677, 1896.328 1169.669 C 1897.146 1169.026, 1967.382 1106.662, 2052.408 1031.081 L 2207 893.663 2207 889.354 C 2207 886.984, 2187.425 687.676, 2163.500 446.448 C 2139.575 205.220, 2120 6.985, 2120 5.926 C 2120 1.931, 2114.540 -1.265, 2111.267 0.814 M 2178.935 2.065 C 2177.461 3.539, 2177.033 4.899, 2177.439 6.815 C 2179.528 16.674, 2343 870.545, 2343 871.598 C 2343 872.325, 2291.250 935.590, 2228 1012.187 C 2131.530 1129.013, 2112.999 1151.940, 2112.994 1154.477 C 2112.986 1158.680, 2176.972 1919.966, 2177.570 1922.784 C 2178.275 1926.103, 2182.480 1927.791, 2185.439 1925.941 C 2186.707 1925.148, 2308.964 1817.907, 2457.122 1687.627 L 2726.500 1450.755 2726.448 1446.627 C 2726.410 1443.668, 2650.061 1238.565, 2456.740 722.085 C 2308.429 325.857, 2186.502 1.301, 2185.792 0.850 C 2183.603 -0.539, 2181.094 -0.094, 2178.935 2.065 M 1940.241 2753.773 C 1939.250 2754.447, 1939.037 2765.303, 1939.241 2804.565 L 1939.500 2854.500 1996.500 2855.042 C 2060.922 2855.655, 2060.821 2855.643, 2076.858 2863.987 C 2120.499 2886.692, 2124.088 2951.264, 2083.214 2978.342 C 2075.726 2983.303, 2071.738 2985.126, 2061.500 2988.269 C 2054.784 2990.330, 2052.163 2990.440, 1997 2990.959 L 1939.500 2991.500 1939.240 3038.435 C 1939.036 3075.319, 1939.250 3085.541, 1940.240 3086.169 C 1940.933 3086.609, 1957.479 3086.976, 1977.010 3086.985 L 2012.520 3087 2065.397 3195.007 L 2118.275 3303.015 2182.387 3302.757 C 2245.643 3302.503, 2246.504 3302.473, 2246.777 3300.500 C 2246.931 3299.390, 2220.573 3247.363, 2187.527 3183.551 C 2154.787 3120.330, 2128.018 3068.355, 2128.039 3068.051 C 2128.061 3067.748, 2134.248 3064.484, 2141.789 3060.798 C 2185.760 3039.306, 2213.630 3001.594, 2222.564 2951.500 C 2225.024 2937.706, 2225.049 2908.593, 2222.613 2893.645 C 2215.318 2848.881, 2192.644 2811.386, 2157.981 2786.766 C 2140.635 2774.445, 2114.245 2762.990, 2092.681 2758.422 C 2071.869 2754.014, 2067.602 2753.771, 2003.500 2753.336 C 1969.400 2753.105, 1940.933 2753.302, 1940.241 2753.773 M 1 3028.462 L 1 3303 48.500 3303 L 96 3303 96 3070.427 L 96 2837.854 146.750 2838.239 C 195.141 2838.605, 197.872 2838.725, 205.500 2840.804 C 218.418 2844.327, 227.434 2849.403, 236.010 2857.985 C 247.808 2869.790, 253.585 2883.103, 254.688 2901.020 C 255.765 2918.512, 251.027 2933.827, 240.001 2948.500 C 233.778 2956.781, 227.720 2968.951, 225.315 2978 C 222.939 2986.939, 222.973 3006.035, 225.380 3015.500 C 227.696 3024.602, 234.926 3039.300, 239.892 3045 L 243.813 3049.500 252.156 3046.609 C 278.837 3037.366, 303.979 3019.175, 320.504 2997.156 C 359.500 2945.197, 359.592 2865.900, 320.718 2813.440 C 302.125 2788.348, 272.677 2768.891, 239.841 2760.002 C 219.370 2754.460, 224.897 2754.701, 108.750 2754.298 L 1 2753.924 1 3028.462 M 963.667 2754.667 C 963.300 2755.033, 963 2878.325, 963 3028.648 L 963 3301.962 965.250 3302.504 C 966.487 3302.803, 1048.001 3302.924, 1146.391 3302.774 C 1313.411 3302.518, 1325.353 3302.387, 1326.353 3300.802 C 1327.218 3299.432, 1322.791 3289.691, 1303.403 3250.302 L 1279.383 3201.500 1171.684 3201.246 L 1063.985 3200.991 1064.242 3138.746 L 1064.500 3076.500 1141.945 3076.244 C 1202.377 3076.044, 1219.563 3075.714, 1220.180 3074.744 C 1220.614 3074.060, 1220.969 3051.900, 1220.969 3025.500 C 1220.969 2999.100, 1220.614 2976.940, 1220.180 2976.256 C 1219.563 2975.286, 1202.377 2974.956, 1141.945 2974.756 L 1064.500 2974.500 1064.500 2915 L 1064.500 2855.500 1172 2855 L 1279.500 2854.500 1293.636 2826 C 1319.190 2774.481, 1327.293 2757.206, 1326.669 2755.579 C 1326.120 2754.149, 1309.046 2754, 1145.198 2754 C 1045.722 2754, 964.033 2754.300, 963.667 2754.667 M 2860.675 2754.658 C 2859.510 2755.824, 2859.878 3122.954, 2861.055 3133.789 C 2870.066 3216.689, 2928.800 3280.493, 3011.772 3297.514 C 3030.056 3301.265, 3040.003 3302.227, 3060.500 3302.227 C 3088.546 3302.227, 3107.806 3299.309, 3131.890 3291.410 C 3202.756 3268.171, 3250.318 3210.782, 3259.447 3137.500 C 3260.897 3125.863, 3261.037 3105.104, 3260.783 2939.500 L 3260.500 2754.500 3205.771 2754.241 L 3151.042 2753.983 3150.508 2756.241 C 3150.215 2757.484, 3149.868 2841.525, 3149.737 2943 L 3149.500 3127.500 3146.777 3137.372 C 3139.569 3163.501, 3125.078 3181.969, 3103.500 3192.527 C 3091.609 3198.346, 3080.514 3200.982, 3065 3201.673 C 3017.923 3203.772, 2984.179 3178.163, 2973.851 3132.500 L 2971.589 3122.500 2971.045 2938.500 L 2970.500 2754.500 2915.925 2754.242 C 2885.909 2754.099, 2861.046 2754.287, 2860.675 2754.658 M 3874.248 3028.250 L 3874.500 3302.500 3929.621 3302.758 C 3975.055 3302.971, 3984.939 3302.778, 3985.868 3301.660 C 3986.690 3300.669, 3987.062 3257.123, 3987.247 3140.265 L 3987.500 2980.228 4084 3129.797 C 4137.075 3212.060, 4183.974 3284.687, 4188.220 3291.192 L 4195.941 3303.019 4245.720 3302.759 L 4295.500 3302.500 4295.500 3028.500 L 4295.500 2754.500 4239.500 2754.500 L 4183.500 2754.500 4183 2915.239 L 4182.500 3075.979 4078.500 2915.030 L 3974.500 2754.081 3924.248 2754.041 L 3873.996 2754 3874.248 3028.250" stroke="none" fill="#000000" fill-rule="evenodd"/>
</svg>