<svg xmlns="http://www.w3.org/2000/svg" width="4296" height="3303" viewBox="0 0 4296 3303" version="1.1">
	<path d="M 0.248 1651.750 C 0.385 2560.213, 0.611 3179.845, 0.750 3028.712 L 1.004 2753.924 108.752 2754.298 C 224.897 2754.701, 219.370 2754.460, 239.841 2760.002 C 272.677 2768.891, 302.125 2788.348, 320.718 2813.440 C 354.792 2859.422, 359.471 2925.708, 332.341 2978.098 C 316 3009.654, 286.791 3034.611, 252.156 3046.609 L 243.813 3049.500 239.892 3045 C 234.926 3039.300, 227.696 3024.602, 225.380 3015.500 C 222.973 3006.035, 222.939 2986.939, 225.315 2978 C 227.720 2968.951, 233.778 2956.781, 240.001 2948.500 C 251.027 2933.827, 255.765 2918.512, 254.688 2901.020 C 253.585 2883.103, 247.808 2869.790, 236.010 2857.985 C 227.434 2849.403, 218.418 2844.327, 205.500 2840.804 C 197.872 2838.725, 195.141 2838.605, 146.750 2838.239 L 96 2837.854 96 3070.427 L 96 3303 530.750 3302.985 C 769.863 3302.976, 964.937 3302.612, 964.248 3302.175 C 963.250 3301.541, 963.047 3246.032, 963.248 3027.940 L 963.500 2754.500 1144.780 2754.247 C 1309.286 2754.018, 1326.117 2754.141, 1326.667 2755.576 C 1327.293 2757.207, 1319.209 2774.444, 1293.636 2826 L 1279.500 2854.500 1172 2855 L 1064.500 2855.500 1064.500 2915 L 1064.500 2974.500 1141.945 2974.756 C 1202.377 2974.956, 1219.563 2975.286, 1220.180 2976.256 C 1221.211 2977.881, 1221.211 3073.119, 1220.180 3074.744 C 1219.563 3075.714, 1202.377 3076.044, 1141.945 3076.244 L 1064.500 3076.500 1064.242 3138.746 L 1063.985 3200.991 1171.684 3201.246 L 1279.383 3201.500 1303.402 3250.298 C 1324.352 3292.864, 1327.265 3299.346, 1326.202 3301.048 C 1324.994 3302.983, 1328.516 3303, 1721.575 3303 C 1939.700 3303, 2118.017 3302.617, 2117.833 3302.148 C 2117.650 3301.679, 2093.880 3253.079, 2065.012 3194.148 L 2012.524 3087 1977.012 3086.985 C 1957.480 3086.976, 1940.933 3086.609, 1940.240 3086.169 C 1939.250 3085.541, 1939.036 3075.319, 1939.240 3038.435 L 1939.500 2991.500 1997 2990.959 C 2052.163 2990.440, 2054.784 2990.330, 2061.500 2988.269 C 2071.738 2985.126, 2075.726 2983.303, 2083.214 2978.342 C 2118.112 2955.224, 2121.697 2901.063, 2090.189 2872.980 C 2083.279 2866.822, 2071.485 2860.611, 2061.287 2857.761 C 2053.829 2855.676, 2051.094 2855.561, 1996.500 2855.042 L 1939.500 2854.500 1939.241 2804.271 L 1938.982 2754.043 1941.464 2753.420 C 1942.829 2753.077, 1971.296 2753.014, 2004.723 2753.279 C 2067.405 2753.776, 2072.021 2754.046, 2092.681 2758.422 C 2105.779 2761.197, 2122.336 2767.060, 2135.500 2773.586 C 2183.272 2797.269, 2213.753 2839.278, 2222.613 2893.645 C 2225.049 2908.593, 2225.024 2937.706, 2222.564 2951.500 C 2213.630 3001.594, 2185.760 3039.306, 2141.789 3060.798 C 2134.248 3064.484, 2128.061 3067.748, 2128.039 3068.051 C 2128.018 3068.355, 2154.795 3120.330, 2187.545 3183.551 C 2228.195 3262.024, 2246.961 3299.214, 2246.684 3300.750 L 2246.277 3303 2650.389 3302.855 C 2872.650 3302.776, 3049.324 3302.359, 3042.999 3301.929 C 2987.253 3298.142, 2936.309 3273.772, 2904.223 3235.544 C 2879.710 3206.338, 2864.790 3170.774, 2860.995 3132.500 C 2860.238 3124.873, 2859.995 3065.230, 2860.202 2938 L 2860.500 2754.500 2915.500 2754.500 L 2970.500 2754.500 2971.045 2938.500 L 2971.589 3122.500 2973.851 3132.500 C 2982.427 3170.417, 3006.658 3194.227, 3043.154 3200.599 C 3055.143 3202.692, 3073.899 3202.002, 3086 3199.024 C 3116.416 3191.536, 3137.826 3169.819, 3146.777 3137.372 L 3149.500 3127.500 3149.737 2943 C 3149.868 2841.525, 3150.215 2757.484, 3150.508 2756.241 L 3151.042 2753.983 3205.771 2754.241 L 3260.500 2754.500 3260.783 2939.500 C 3261.037 3105.104, 3260.897 3125.863, 3259.447 3137.500 C 3253.593 3184.493, 3231.207 3226.666, 3196.755 3255.607 C 3163.430 3283.601, 3119.926 3299.957, 3072.500 3302.323 C 3069.200 3302.487, 3248.300 3302.707, 3470.500 3302.811 L 3874.500 3303 3874.246 3028.500 L 3873.993 2754 3924.246 2754.041 L 3974.500 2754.081 4078.500 2915.030 L 4182.500 3075.979 4183 2915.239 L 4183.500 2754.500 4239.500 2754.500 L 4295.500 2754.500 4295.500 3028.655 C 4295.500 3179.439, 4295.837 3302.600, 4296.250 3302.345 C 4296.662 3302.091, 4297 2558.959, 4297 1650.941 L 4297 0 3240.750 0.015 C 2659.813 0.024, 2185.081 0.399, 2185.792 0.850 C 2186.502 1.301, 2308.429 325.857, 2456.740 722.085 C 2650.061 1238.565, 2726.410 1443.668, 2726.448 1446.627 L 2726.500 1450.755 2457.122 1687.627 C 2308.964 1817.907, 2186.707 1925.148, 2185.439 1925.941 C 2182.480 1927.791, 2178.275 1926.103, 2177.570 1922.784 C 2176.972 1919.966, 2112.986 1158.680, 2112.994 1154.477 C 2112.999 1151.940, 2131.530 1129.013, 2228 1012.187 C 2291.250 935.590, 2343 872.325, 2343 871.598 C 2343 870.545, 2179.528 16.674, 2177.439 6.815 C 2177.033 4.899, 2177.461 3.539, 2178.935 2.065 L 2181 0 2148.500 0 C 2116 0, 2116 0, 2118 2 C 2119.100 3.100, 2120 4.867, 2120 5.926 C 2120 6.985, 2139.575 205.220, 2163.500 446.448 C 2187.425 687.676, 2207 886.984, 2207 889.354 L 2207 893.663 2052.408 1031.081 C 1967.382 1106.662, 1897.146 1169.026, 1896.328 1169.669 C 1895.044 1170.677, 1910.338 1222.490, 2007.433 1546.089 C 2073.772 1767.183, 2119.780 1922.116, 2119.427 1923.231 C 2118.532 1926.051, 2114.749 1927.471, 2112.021 1926.011 C 2109.749 1924.795, 1572.109 1452.532, 1570.765 1450.572 C 1570.361 1449.982, 1570.024 1448.499, 1570.015 1447.276 C 1569.994 1444.210, 2109.734 1.787, 2111.267 0.814 C 2111.945 0.383, 1637.188 0.024, 1056.250 0.015 L 0 0 0.248 1651.750 M 0.499 1652 C 0.499 2560.325, 0.612 2931.912, 0.750 2477.750 C 0.888 2023.587, 0.888 1280.412, 0.750 826.250 C 0.612 372.087, 0.499 743.675, 0.499 1652 M 3987 3140.133 C 3987 3263.607, 3986.723 3300.877, 3985.800 3301.800 C 3984.867 3302.733, 4008.100 3303, 4090.348 3303 L 4196.096 3303 4193.185 3298.750 C 4191.584 3296.412, 4144.703 3223.850, 4089.006 3137.500 C 4033.308 3051.150, 3987.572 2980.313, 3987.369 2980.083 C 3987.166 2979.854, 3987 3051.877, 3987 3140.133" stroke="none" fill="#000000" fill-rule="evenodd"/>
</svg>